<?xml version="1.0" standalone="no"?>
<!DOCTYPE svg PUBLIC "-//W3C//DTD SVG 20010904//EN" "http://www.w3.org/TR/2001/REC-SVG-20010904/DTD/svg10.dtd">
<svg
    version="1.0"
    xmlns="http://www.w3.org/2000/svg"
    width="360.000000pt"
    height="360.000000pt"
    viewBox="0 0 360.000000 360.000000"
    preserveAspectRatio="xMidYMid meet">
    <g
        transform="translate(0.000000,360.000000) scale(0.100000,-0.100000)"
        fill="#000000"
        stroke="none">
        <path d="M745 3266 c-41 -18 -83 -69 -90 -109 -3 -18 -5 -397 -3 -844 3 -802 3 -812 24 -839 11 -15 33 -37 48 -48 27 -21 33 -21 1076 -21 1043 0 1049 0 1076 21 15 11 37 33 48 48 21 27 21 35 21 866 0 831 0 839 -21 866 -11 15 -33 37 -48 48 -27 21 -34 21 -1064 23 -847 2 -1043 0 -1067 -11z m993 -578 l-3 -83 -167 -3 -168 -2 0 -90 0 -90 145 0 145 0 0 -85 0 -85 -145 0 -145 0 -2 -162 -3 -163 -97 -3 -98 -3 0 426 0 425 270 0 271 0 -3 -82z m622 -23 l0 -85 -150 0 -150 0 0 -32 c0 -18 -3 -50 -7 -72 -6 -37 -5 -38 18 -30 43 14 136 6 189 -17 92 -39 140 -119 140 -231 0 -114 -57 -205 -158 -255 -51 -25 -68 -28 -157 -28 -87 0 -107 3 -155 26 -66 31 -123 77 -116 94 2 7 21 36 41 64 l36 50 56 -37 c51 -34 62 -37 125 -37 66 0 71 2 99 33 24 27 29 41 29 87 0 66 -26 102 -85 115 -41 9 -100 -1 -136 -23 -14 -8 -25 -7 -54 9 -20 10 -41 24 -46 31 -6 7 -6 69 1 175 5 89 10 182 10 206 l0 42 235 0 235 0 0 -85z" />
        <path d="M411 2709 c-90 -171 -176 -338 -190 -372 l-26 -62 -3 -870 c-2 -794 -1 -874 14 -914 21 -55 75 -116 128 -144 l41 -22 1425 0 1425 0 40 22 c22 12 57 39 77 60 72 74 68 15 68 985 0 593 -4 886 -11 913 -6 22 -92 192 -192 377 l-182 338 -5 -768 c-6 -849 -1 -791 -72 -859 -69 -67 0 -63 -1148 -63 -1148 0 -1079 -4 -1148 63 -71 68 -66 10 -72 859 l-5 767 -164 -310z m199 -1545 c0 -15 -208 -531 -236 -586 -17 -32 -49 -37 -63 -10 -7 14 19 88 113 316 68 164 129 302 136 306 18 11 50 -6 50 -26z m2579 -283 c102 -248 121 -304 111 -316 -21 -25 -49 -18 -65 18 -39 85 -235 571 -235 583 0 19 32 34 50 24 9 -5 71 -144 139 -309z" />
    </g>
</svg>
